<svg width="120" height="120" viewBox="0 0 120 120" fill="none" xmlns="http://www.w3.org/2000/svg">
  <!-- 背景圆形 -->
  <circle cx="60" cy="60" r="60" fill="#007AFF"/>
  
  <!-- 内部装饰圆环 -->
  <circle cx="60" cy="60" r="45" fill="none" stroke="#ffffff" stroke-width="2" opacity="0.3"/>
  
  <!-- 主要图标 - 聊天气泡 -->
  <g transform="translate(30, 35)">
    <!-- 主聊天气泡 -->
    <path d="M5 15 C5 10, 10 5, 15 5 L45 5 C50 5, 55 10, 55 15 L55 30 C55 35, 50 40, 45 40 L20 40 L10 50 L15 40 L15 40 C10 40, 5 35, 5 30 Z" fill="#ffffff"/>
    
    <!-- 聊天气泡内的点 -->
    <circle cx="20" cy="22.5" r="3" fill="#007AFF"/>
    <circle cx="30" cy="22.5" r="3" fill="#007AFF"/>
    <circle cx="40" cy="22.5" r="3" fill="#007AFF"/>
  </g>
  
  <!-- 装饰性小气泡 -->
  <circle cx="85" cy="45" r="8" fill="#ffffff" opacity="0.8"/>
  <circle cx="88" cy="48" r="3" fill="#007AFF"/>
  
  <!-- 底部文字区域装饰 -->
  <rect x="25" y="85" width="70" height="3" rx="1.5" fill="#ffffff" opacity="0.6"/>
  <rect x="35" y="92" width="50" height="2" rx="1" fill="#ffffff" opacity="0.4"/>
</svg>